<svg xmlns="http://www.w3.org/2000/svg" width="273.348" height="205.011" viewBox="0 0 273.348 205.011"><g transform="translate(-7.667 -13)"><path d="M16.209,30.084H272.473a8.542,8.542,0,0,0,0-17.084H16.209a8.542,8.542,0,0,0,0,17.084Z" fill="#fff"/><path d="M16.209,52.084H272.473a8.542,8.542,0,0,0,0-17.084H16.209a8.542,8.542,0,1,0,0,17.084Z" transform="translate(0 165.927)" fill="#fff"/><path d="M16.209,41.084H272.473a8.542,8.542,0,0,0,0-17.084H16.209a8.542,8.542,0,1,0,0,17.084Z" transform="translate(0 82.963)" fill="#fff"/></g></svg>